<svg xmlns="http://www.w3.org/2000/svg" viewBox="0 0 64 64" fill="none">
  <rect x="4" y="4" width="56" height="56" rx="18" fill="#1E2D30"/>
  <rect x="7" y="7" width="50" height="50" rx="15" stroke="#F8C66F" stroke-width="2"/>
  <circle cx="32" cy="22" r="10" fill="#F3E3B3"/>
  <path d="M18 48c2.4-8.2 8.8-12 14-12s11.6 3.8 14 12" fill="#7BC0FF"/>
  <path d="M27 19l5-7 5 7-5 3-5-3Z" fill="#F8C66F"/>
  <circle cx="47" cy="17" r="6" fill="#F8C66F"/>
  <path d="m47 13 1.2 2.4 2.8.4-2 1.9.5 2.8-2.5-1.3-2.5 1.3.5-2.8-2-1.9 2.8-.4L47 13Z" fill="#1E2D30"/>
</svg>
